<svg width="43" height="46" viewBox="0 0 43 46" fill="none" xmlns="http://www.w3.org/2000/svg">
<path fill-rule="evenodd" clip-rule="evenodd" d="M22.7512 0.913411C25.6848 2.7041 28.8482 4.14535 32.1672 5.20345C34.6299 6.0007 37.24 6.32791 39.8416 6.16553L42.5405 5.93717L42.6733 8.46029C43.168 17.7404 41.5591 25.8039 38.1845 32.1641C34.673 38.7826 29.2752 43.563 22.3449 45.9888H20.5429C13.7695 43.6865 8.4119 39.0371 4.85625 32.3363C1.5379 26.0472 -0.1635 17.9238 0.110012 8.23568L0.182412 5.74626L2.84111 5.87354C5.73535 6.0483 8.64062 5.7712 11.4366 5.05371C14.4632 4.2309 17.2894 2.86931 19.7586 1.04443L21.2026 0L22.7512 0.913411ZM21.3715 7.22493C26.8136 10.4368 31.7288 11.9567 35.9481 11.6048C36.6842 25.4557 31.1818 36.0423 21.4278 39.4601C12.0038 36.2594 6.43296 26.0397 6.84725 11.384C11.7986 11.6273 16.6615 10.6353 21.3715 7.22493ZM18.387 23.0636C18.7625 23.3618 19.1172 23.6819 19.4489 24.022C20.4516 22.5173 21.563 21.0777 22.7753 19.7132C26.0896 15.9884 25.1001 16.2318 29.6975 16.2318L29.0419 16.8906C27.3159 18.6926 25.7298 20.6066 24.2957 22.6182C22.7014 24.7638 21.2558 27.002 19.9678 29.319L19.5655 30.034L19.1995 29.3078C18.5494 27.9871 17.7267 26.7461 16.75 25.613C15.8688 24.5768 14.8166 23.6771 13.6328 22.9476C14.2321 21.117 17.0879 22.0566 18.3669 23.0636H18.387ZM21.3554 2.9611C28.3461 7.07894 34.657 9.03304 40.0789 8.57633C41.0242 26.3916 33.9531 39.3366 21.4278 43.7277C9.33299 39.6136 2.17744 27.1216 2.70837 8.30306C9.06752 8.61003 15.31 7.3335 21.3554 2.9611Z" fill="white"/>
</svg>
