<svg width="21" height="21" viewBox="0 0 21 21" fill="none" xmlns="http://www.w3.org/2000/svg">
<path d="M10.4998 0.916992C5.21559 0.916992 0.916504 5.21608 0.916504 10.5003V14.4707C0.916504 15.452 1.77613 16.2503 2.83317 16.2503H3.7915C4.04567 16.2503 4.28943 16.1494 4.46915 15.9696C4.64887 15.7899 4.74984 15.5462 4.74984 15.292V10.3633C4.74984 10.1091 4.64887 9.86536 4.46915 9.68564C4.28943 9.50592 4.04567 9.40495 3.7915 9.40495H2.92134C3.45417 5.6962 6.64542 2.83366 10.4998 2.83366C14.3543 2.83366 17.5455 5.6962 18.0783 9.40495H17.2082C16.954 9.40495 16.7102 9.50592 16.5305 9.68564C16.3508 9.86536 16.2498 10.1091 16.2498 10.3633V16.2503C16.2498 17.3074 15.3902 18.167 14.3332 18.167H12.4165V17.2087H8.58317V20.0837H14.3332C16.4473 20.0837 18.1665 18.3644 18.1665 16.2503C19.2235 16.2503 20.0832 15.452 20.0832 14.4707V10.5003C20.0832 5.21608 15.7841 0.916992 10.4998 0.916992Z" fill="white"/>
</svg>
