<svg width="21" height="21" viewBox="0 0 21 21" fill="none" xmlns="http://www.w3.org/2000/svg">
<path d="M10.5001 0.277832C8.47829 0.277832 6.50193 0.877355 4.8209 2.00059C3.13986 3.12382 1.82965 4.72031 1.05596 6.58818C0.282261 8.45605 0.0798271 10.5114 0.474254 12.4943C0.86868 14.4772 1.84225 16.2987 3.27186 17.7283C4.70146 19.1579 6.52289 20.1314 8.5058 20.5259C10.4887 20.9203 12.5441 20.7179 14.4119 19.9442C16.2798 19.1705 17.8763 17.8603 18.9995 16.1792C20.1228 14.4982 20.7223 12.5218 20.7223 10.5001C20.7223 7.78895 19.6453 5.18889 17.7283 3.27185C15.8112 1.35481 13.2112 0.277832 10.5001 0.277832ZM10.5001 19.4445C8.73101 19.4445 7.0017 18.9199 5.53079 17.9371C4.05989 16.9543 2.91345 15.5573 2.23647 13.9229C1.55949 12.2886 1.38236 10.4901 1.72748 8.75508C2.0726 7.02003 2.92448 5.42628 4.17538 4.17538C5.42628 2.92447 7.02003 2.0726 8.75508 1.72747C10.4901 1.38235 12.2886 1.55948 13.9229 2.23647C15.5573 2.91345 16.9543 4.05988 17.9371 5.53079C18.9199 7.00169 19.4445 8.73101 19.4445 10.5001C19.4445 12.8723 18.5021 15.1473 16.8247 16.8247C15.1473 18.5021 12.8723 19.4445 10.5001 19.4445Z" fill="white"/>
<path d="M10.6851 4.69889C9.99273 4.68744 9.30637 4.82863 8.67477 5.11241C8.04317 5.39619 7.48182 5.8156 7.03062 6.34083C6.96793 6.39892 6.91754 6.469 6.88242 6.54692C6.8473 6.62483 6.82818 6.709 6.82617 6.79444C6.82613 6.87327 6.84194 6.9513 6.87267 7.02389C6.9034 7.09648 6.94842 7.16215 7.00505 7.21699C7.06168 7.27183 7.12875 7.31472 7.20229 7.3431C7.27583 7.37149 7.35433 7.38479 7.43312 7.38222C7.6019 7.37804 7.76328 7.31212 7.88673 7.19694C8.22819 6.79679 8.65229 6.47537 9.12985 6.25479C9.6074 6.03421 10.1271 5.91971 10.6531 5.91916C12.1609 5.91916 13.1001 6.89027 13.1001 8.09777V8.12972C13.1001 9.54166 11.9756 10.3275 10.1995 10.4617C10.1276 10.4644 10.0571 10.4824 9.99256 10.5143C9.92805 10.5462 9.87101 10.5914 9.82517 10.6469C9.77934 10.7024 9.74573 10.7669 9.72657 10.8363C9.7074 10.9057 9.7031 10.9783 9.71395 11.0494C9.71395 11.0494 9.71395 12.5317 9.71395 12.8064C9.72984 12.9645 9.80411 13.1111 9.92224 13.2174C10.0404 13.3237 10.1939 13.3822 10.3528 13.3814H10.4231C10.5813 13.3655 10.7278 13.2912 10.8341 13.1731C10.9404 13.055 10.9989 12.9014 10.9981 12.7425V11.4264C12.9148 11.1581 14.4673 10.1486 14.4673 8.05305V8.02111C14.4481 6.10444 12.9531 4.69889 10.6851 4.69889V4.69889Z" fill="white"/>
<path d="M10.7986 16.5972C11.2397 16.5972 11.5972 16.2397 11.5972 15.7986C11.5972 15.3576 11.2397 15 10.7986 15C10.3576 15 10 15.3576 10 15.7986C10 16.2397 10.3576 16.5972 10.7986 16.5972Z" fill="white"/>
</svg>
