<svg width="9" height="10" viewBox="0 0 9 10" fill="none" xmlns="http://www.w3.org/2000/svg">
<path d="M4.68506 0.698886C3.99273 0.687443 3.30637 0.828628 2.67477 1.11241C2.04317 1.39619 1.48182 1.8156 1.03062 2.34083C0.967931 2.39892 0.917539 2.469 0.882422 2.54692C0.847305 2.62483 0.828178 2.709 0.826172 2.79444C0.82613 2.87327 0.841944 2.9513 0.872674 3.02389C0.903404 3.09648 0.948422 3.16215 1.00505 3.21699C1.06168 3.27183 1.12875 3.31472 1.20229 3.3431C1.27583 3.37149 1.35433 3.38479 1.43312 3.38222C1.6019 3.37804 1.76328 3.31212 1.88673 3.19694C2.22819 2.79679 2.65229 2.47537 3.12985 2.25479C3.6074 2.03421 4.12708 1.91971 4.65312 1.91916C6.16089 1.91916 7.10006 2.89028 7.10006 4.09777V4.12972C7.10006 5.54166 5.97562 6.3275 4.19951 6.46166C4.12759 6.46444 4.05707 6.48237 3.99256 6.51429C3.92805 6.54621 3.87101 6.59139 3.82517 6.64688C3.77934 6.70237 3.74573 6.76691 3.72657 6.83628C3.7074 6.90565 3.7031 6.97829 3.71395 7.04944C3.71395 7.04944 3.71395 8.53166 3.71395 8.80639C3.72984 8.96453 3.80411 9.11106 3.92224 9.21739C4.04038 9.32371 4.1939 9.38218 4.35284 9.38139H4.42312C4.58126 9.36549 4.72779 9.29123 4.83412 9.17309C4.94044 9.05496 4.99891 8.90143 4.99812 8.7425V7.42639C6.91478 7.15805 8.46728 6.14861 8.46728 4.05305V4.02111C8.44812 2.10444 6.95312 0.698886 4.68506 0.698886Z" fill="white"/>
</svg>
